<mxfile host="app.diagrams.net" modified="2022-11-07T11:39:18.571Z" agent="5.0 (Macintosh; Intel Mac OS X 10_15_7) AppleWebKit/537.36 (KHTML, like Gecko) Chrome/106.0.0.0 Safari/537.36" etag="EXr5VxneDspYamLUBoDt" version="20.4.0" type="github">
  <diagram id="Wg0d9Adiy5aKfdoTfnLQ" name="Page-1">
    <mxGraphModel dx="1426" dy="800" grid="1" gridSize="10" guides="1" tooltips="1" connect="1" arrows="1" fold="1" page="1" pageScale="1" pageWidth="850" pageHeight="1100" math="0" shadow="0">
      <root>
        <mxCell id="0" />
        <mxCell id="1" parent="0" />
        <mxCell id="FvD9IX_zH30SK5nC0YlR-1" value="" style="rounded=0;whiteSpace=wrap;html=1;fillColor=#d5e8d4;strokeColor=#82b366;" vertex="1" parent="1">
          <mxGeometry x="160" y="160" width="560" height="480" as="geometry" />
        </mxCell>
        <mxCell id="FvD9IX_zH30SK5nC0YlR-2" value="&lt;font style=&quot;font-size: 14px;&quot;&gt;CUDA Driver API&lt;/font&gt;" style="rounded=1;whiteSpace=wrap;html=1;" vertex="1" parent="1">
          <mxGeometry x="200" y="520" width="280" height="60" as="geometry" />
        </mxCell>
        <mxCell id="FvD9IX_zH30SK5nC0YlR-3" value="&lt;font style=&quot;font-size: 14px;&quot;&gt;CUDA Runtime API&lt;/font&gt;" style="rounded=1;whiteSpace=wrap;html=1;" vertex="1" parent="1">
          <mxGeometry x="200" y="370" width="280" height="60" as="geometry" />
        </mxCell>
        <mxCell id="FvD9IX_zH30SK5nC0YlR-4" value="&lt;font style=&quot;font-size: 14px;&quot;&gt;CUDA Libraries&lt;/font&gt;" style="rounded=1;whiteSpace=wrap;html=1;" vertex="1" parent="1">
          <mxGeometry x="200" y="220" width="280" height="60" as="geometry" />
        </mxCell>
        <mxCell id="FvD9IX_zH30SK5nC0YlR-7" value="&lt;font style=&quot;font-size: 11px;&quot;&gt;新版本VGPU&lt;br style=&quot;font-size: 11px;&quot;&gt;cuda调用劫持点&lt;/font&gt;" style="ellipse;whiteSpace=wrap;html=1;aspect=fixed;fontSize=14;fillColor=#fff2cc;strokeColor=#d6b656;" vertex="1" parent="1">
          <mxGeometry x="580" y="495" width="110" height="110" as="geometry" />
        </mxCell>
        <mxCell id="FvD9IX_zH30SK5nC0YlR-11" value="&lt;font style=&quot;font-size: 11px;&quot;&gt;旧版本VGPU&lt;br style=&quot;font-size: 11px;&quot;&gt;cuda调用劫持点&lt;/font&gt;" style="ellipse;whiteSpace=wrap;html=1;aspect=fixed;fontSize=14;fillColor=#fff2cc;strokeColor=#d6b656;" vertex="1" parent="1">
          <mxGeometry x="580" y="195" width="110" height="110" as="geometry" />
        </mxCell>
        <mxCell id="FvD9IX_zH30SK5nC0YlR-12" value="" style="endArrow=classic;html=1;rounded=0;fontSize=12;exitX=0.5;exitY=1;exitDx=0;exitDy=0;" edge="1" parent="1" source="FvD9IX_zH30SK5nC0YlR-4" target="FvD9IX_zH30SK5nC0YlR-3">
          <mxGeometry width="50" height="50" relative="1" as="geometry">
            <mxPoint x="400" y="440" as="sourcePoint" />
            <mxPoint x="450" y="390" as="targetPoint" />
          </mxGeometry>
        </mxCell>
        <mxCell id="FvD9IX_zH30SK5nC0YlR-13" value="" style="endArrow=classic;html=1;rounded=0;fontSize=12;exitX=0.5;exitY=1;exitDx=0;exitDy=0;entryX=0.5;entryY=0;entryDx=0;entryDy=0;" edge="1" parent="1" source="FvD9IX_zH30SK5nC0YlR-3" target="FvD9IX_zH30SK5nC0YlR-2">
          <mxGeometry width="50" height="50" relative="1" as="geometry">
            <mxPoint x="350" y="290" as="sourcePoint" />
            <mxPoint x="350" y="380" as="targetPoint" />
          </mxGeometry>
        </mxCell>
        <mxCell id="FvD9IX_zH30SK5nC0YlR-14" value="" style="endArrow=classic;html=1;rounded=0;fontSize=12;exitX=0;exitY=0.5;exitDx=0;exitDy=0;entryX=1;entryY=0.5;entryDx=0;entryDy=0;fillColor=#e51400;strokeColor=#FF0000;strokeWidth=1;" edge="1" parent="1" source="FvD9IX_zH30SK5nC0YlR-11" target="FvD9IX_zH30SK5nC0YlR-4">
          <mxGeometry width="50" height="50" relative="1" as="geometry">
            <mxPoint x="400" y="440" as="sourcePoint" />
            <mxPoint x="450" y="390" as="targetPoint" />
          </mxGeometry>
        </mxCell>
        <mxCell id="FvD9IX_zH30SK5nC0YlR-15" value="" style="endArrow=classic;html=1;rounded=0;fontSize=12;exitX=0;exitY=0.5;exitDx=0;exitDy=0;entryX=1;entryY=0.5;entryDx=0;entryDy=0;fillColor=#e51400;strokeColor=#FF0000;strokeWidth=1;" edge="1" parent="1" source="FvD9IX_zH30SK5nC0YlR-7">
          <mxGeometry width="50" height="50" relative="1" as="geometry">
            <mxPoint x="580" y="549" as="sourcePoint" />
            <mxPoint x="480" y="549" as="targetPoint" />
          </mxGeometry>
        </mxCell>
        <mxCell id="FvD9IX_zH30SK5nC0YlR-17" value="" style="shape=flexArrow;endArrow=classic;html=1;rounded=0;strokeColor=#10739e;strokeWidth=1;fontSize=12;fillColor=#b1ddf0;" edge="1" parent="1">
          <mxGeometry width="50" height="50" relative="1" as="geometry">
            <mxPoint x="635" y="320" as="sourcePoint" />
            <mxPoint x="635" y="480" as="targetPoint" />
          </mxGeometry>
        </mxCell>
        <mxCell id="FvD9IX_zH30SK5nC0YlR-18" value="&lt;span style=&quot;font-size: 14px;&quot;&gt;&lt;font style=&quot;font-size: 14px;&quot;&gt;变更&lt;/font&gt;&lt;/span&gt;" style="rounded=0;whiteSpace=wrap;html=1;fontSize=14;gradientColor=none;fillColor=none;strokeWidth=0;strokeColor=none;fontColor=default;fontStyle=3" vertex="1" parent="1">
          <mxGeometry x="580" y="370" width="50" height="60" as="geometry" />
        </mxCell>
      </root>
    </mxGraphModel>
  </diagram>
</mxfile>
